<?xml version="1.0" standalone="no"?><!-- Generator: Gravit.io --><svg xmlns="http://www.w3.org/2000/svg" xmlns:xlink="http://www.w3.org/1999/xlink" style="isolation:isolate" viewBox="0 0 401.6 86.981" width="401.6" height="86.981"><defs><clipPath id="_clipPath_udQEsXeKTdhLAG0YJ3Kds6CM8MctwQcZ"><rect width="401.6" height="86.981"/></clipPath></defs><g clip-path="url(#_clipPath_udQEsXeKTdhLAG0YJ3Kds6CM8MctwQcZ)"><g transform="matrix(1,0,0,1,93,15.498)"><text transform="matrix(1,0,0,1,0,42.801)" style="font-family:'Product Sans';font-weight:400;font-size:42px;font-style:normal;font-variant-ligatures:none;fill:#ffffff;stroke:none;">GDG Bordeaux</text></g><g><g><path d="M 38.003 27.561 L 18.908 38.586 C 16.294 40.095 15.397 43.443 16.906 46.056 L 16.906 46.056 C 18.416 48.67 21.763 49.567 24.377 48.058 L 43.472 37.034 C 46.086 35.525 46.983 32.177 45.474 29.563 L 45.474 29.563 C 43.965 26.949 40.617 26.052 38.003 27.561 Z" style="stroke:none;fill:#EA4334;stroke-miterlimit:10;"/><path d="M 43.298 49.697 L 24.203 38.673 C 21.589 37.163 18.242 38.06 16.733 40.674 L 16.733 40.674 C 15.224 43.288 16.121 46.636 18.735 48.145 L 37.83 59.17 C 40.444 60.679 43.791 59.782 45.3 57.168 L 45.3 57.168 C 46.809 54.554 45.912 51.206 43.298 49.697 Z" style="stroke:none;fill:#4285F4;stroke-miterlimit:10;"/><path d="M 56.069 49.871 L 75.165 38.846 C 77.778 37.337 81.126 38.234 82.635 40.848 L 82.635 40.848 C 84.144 43.462 83.247 46.809 80.633 48.319 L 61.538 59.343 C 58.924 60.852 55.577 59.955 54.068 57.341 L 54.068 57.341 C 52.559 54.727 53.455 51.38 56.069 49.871 Z" style="stroke:none;fill:#FCBC05;stroke-miterlimit:10;"/><path d="M 61.712 27.735 L 80.807 38.759 C 83.421 40.269 84.318 43.616 82.809 46.23 L 82.809 46.23 C 81.3 48.844 77.952 49.741 75.338 48.232 L 56.243 37.207 C 53.629 35.698 52.732 32.351 54.241 29.737 L 54.241 29.737 C 55.75 27.123 59.098 26.226 61.712 27.735 Z" style="stroke:none;fill:#0D9D58;stroke-miterlimit:10;"/></g></g></g></svg>