<svg xmlns="http://www.w3.org/2000/svg" width="24" height="11.81" viewBox="0 0 24 11.81"><title>gdg</title><path d="M246.82,251.63,240,255.55a2,2,0,0,0-.71,2.66h0a2,2,0,0,0,2.66.71l6.78-3.92a2,2,0,0,0,.71-2.66h0A2,2,0,0,0,246.82,251.63Z" transform="translate(-239 -251.37)" fill="#ea4334" fill-rule="evenodd"/><path d="M248.7,259.5l-6.78-3.92a2,2,0,0,0-2.66.71h0A2,2,0,0,0,240,259l6.79,3.91a1.93,1.93,0,0,0,2.65-.71h0A1.93,1.93,0,0,0,248.7,259.5Z" transform="translate(-239 -251.37)" fill="#4285f4" fill-rule="evenodd"/><path d="M253.24,259.56l6.78-3.92a2,2,0,0,1,2.66.71h0A2,2,0,0,1,262,259l-6.79,3.92a2,2,0,0,1-2.65-.71h0A2,2,0,0,1,253.24,259.56Z" transform="translate(-239 -251.37)" fill="#fcbc05" fill-rule="evenodd"/><path d="M255.24,251.69l6.79,3.92a2,2,0,0,1,.71,2.66h0a2,2,0,0,1-2.66.71l-6.78-3.92a1.93,1.93,0,0,1-.71-2.65h0A2,2,0,0,1,255.24,251.69Z" transform="translate(-239 -251.37)" fill="#0d9d58" fill-rule="evenodd"/></svg>
