<svg fill="#e51937" xmlns="http://www.w3.org/2000/svg" width="24" height="24" viewBox="0 0 400 400">
  <path d="M128.256 36.411a7.217 7.217 0 0 0-7.217 7.22 7.219 7.219 0 1 0 7.219-7.219h-.002zm92.278 9.073c-7.682 0-13.909 6.227-13.909 13.91 0 7.681 6.227 13.91 13.91 13.91 7.682 0 13.908-6.228 13.908-13.91s-6.226-13.91-13.909-13.91c.001 0 .001 0 0 0zM177.44 77.721c-13.952.033-24.537 2.971-36.717 10.188-11.102 6.578-23.854 20.971-28.51 32.175-1.61 3.873-1.719 3.956-6.3 4.827-15.045 2.86-29.45 15.994-34.51 31.467-1.626 4.972-1.96 7.577-1.95 15.2.013 9.696.958 13.905 4.892 21.763l1.884 3.761-2.82 3.04c-19.01 20.478-18.492 51.81 1.183 71.485 6.681 6.681 15.58 11.816 23.578 13.605l4.41.986.468 3.68c3.118 24.438 18.83 42.956 41.483 48.896 7.342 1.925 19.708 2.056 26.86.284 6.378-1.58 13.74-4.868 18.05-8.06l3.2-2.372 4.4 3c5.65 3.851 11.42 6.103 18.417 7.19 18.28 2.835 37.747-8.937 43.95-26.576l1.503-4.282 7.648-.555c8.73-.634 18.555-3.652 25.89-7.953 7.43-4.357 18.443-15.938 22.341-23.492 5.574-10.807 7.024-16.76 7.016-28.8-.01-11.97-1.178-17.297-5.91-26.955l-3.016-6.155 2.997-2.926c1.648-1.609 3.977-4.727 5.174-6.926 9.828-18.058 2.544-39.84-16.244-48.575l-4.167-1.938-.016-4.062c-.059-14.859-5.562-29.975-15.244-41.86-7.336-9.007-21.023-17.637-32.695-20.613-10.54-2.689-25.51-2.343-34.399.793-2.797.987-3.244.87-10.788-2.836-10.907-5.355-19.9-7.432-32.058-7.404zM97.084 89.275c-5.895 0-10.674 4.78-10.673 10.674v.001c0 5.895 4.778 10.673 10.673 10.673 5.895 0 10.673-4.779 10.673-10.673.001-5.895-4.777-10.674-10.673-10.675.001 0 .001 0 0 0zm229.13 34.17c-6.389 0-11.567 5.18-11.567 11.568.001 6.388 5.18 11.566 11.567 11.567 6.39 0 11.568-5.178 11.57-11.567 0-6.389-5.18-11.568-11.568-11.569h-.002zm-117.136 13.728c4.532-.105 7.897 1.475 12.893 5.658 3.116 2.611 5.95 4.747 6.295 4.747s2.521-.982 4.836-2.183c3.613-1.875 5.178-2.186 11.073-2.2 9.196-.022 13.978 1.453 18.114 5.59 6.422 6.421 7.676 16.211 3.623 28.306-1.279 3.821-5.782 14.821-10.006 24.443-4.224 9.623-8.808 20.771-10.186 24.771-2.5 7.254-3.737 16.143-2.78 19.956.854 3.405 4.613 5.31 13.625 6.903 8.912 1.576 11.692 2.858 13.151 6.062 2.471 5.422-.38 11.527-6.128 13.123-4.08 1.134-17.132.923-23.094-.373-7.323-1.592-11.753-3.832-16.556-8.375-7.857-7.43-11.01-18.48-8.129-28.48.752-2.609 6.34-15.184 12.418-27.943s11.408-24.514 11.845-26.12c1.146-4.212-.225-6.608-3.958-6.922-2.48-.208-3.22.161-5.254 2.628-1.303 1.58-9.825 17.597-18.94 35.593-18.277 36.082-19.45 37.81-26.412 38.852-8.213 1.232-13.912-2.102-14.64-8.565-.374-3.31.534-6.055 8.996-27.173 10.53-26.278 11.453-30.085 8.217-33.847-1.258-1.462-2.71-2.246-4.163-2.246-5.118 0-5.6.905-20.88 39.12-7.92 19.81-15.376 37.486-16.569 39.283-4.669 7.035-12.082 9.92-21.178 8.237-12.38-2.288-19.398-10.192-19.436-21.889-.015-4.507 1.03-8.932 6.036-25.6 8.337-27.756 15.875-50.063 19.648-58.152 3.748-8.032 8.014-12.749 14.7-16.25 4.336-2.273 5.494-2.517 12-2.532 7.071-.016 7.355.06 16 4.233 10.68 5.157 11.713 5.094 18.874-1.133 6.024-5.238 8.216-6.489 12.605-7.19a25.096 25.096 0 0 1 3.36-.332zm156.037 30.436a6.324 6.324 0 1 0 0 12.648 6.325 6.325 0 0 0 0-12.648zM42.492 178.934c-7.695 0-13.933 6.238-13.933 13.933 0 7.695 6.238 13.933 13.933 13.933 7.695 0 13.933-6.237 13.933-13.933 0-7.695-6.238-13.933-13.933-13.933zm305.161 30.238a8.804 8.804 0 1 0 0 17.607 8.804 8.804 0 0 0 0-17.607zM86.534 296.345a6.362 6.362 0 0 0-6.362 6.36 6.363 6.363 0 0 0 5.275 6.263c.126.023.253.043.38.058l.144.015c.151.014.301.02.452.021l.112.006.102-.003c.031 0 .062 0 .092-.003a6.362 6.362 0 0 0 6.17-6.356 6.36 6.36 0 0 0-2.372-4.946c-.26-.266-.515-.488-.744-.61-1.067-.57-2.129-.81-3.137-.798l-.112-.007zm195.853 22.434c-8.134 0-14.728 6.594-14.729 14.73.001 8.134 6.595 14.728 14.73 14.728s14.728-6.594 14.728-14.728c.001-8.136-6.593-14.73-14.729-14.73zm-90.564 27.242a8.785 8.785 0 0 0-8.783 8.783 8.783 8.783 0 0 0 8.783 8.784 8.783 8.783 0 0 0 8.784-8.782v-.002a8.783 8.783 0 0 0-8.784-8.783z" />
</svg>
