<svg enable-background="new 0 0 108 108" height="108px" version="1.1" viewBox="0 0 108 108" width="108px" xml:space="preserve" xmlns="http://www.w3.org/2000/svg" xmlns:xlink="http://www.w3.org/1999/xlink" style="opacity:1.0">
  <path d="M3,54c0-8.21,1.95-15.96,5.4-22.83l-2.62-1.32c-3.67,7.29-5.74,15.51-5.74,24.23 c0,9.01,2.22,17.49,6.12,24.96l2.66-1.4C5.11,70.56,3,62.53,3,54z" fill="#F6AD01"></path>
  <path d="M90.22,94.16l-2.07-2.28C79.11,100.03,67.13,105,54,105c-19.64,0-36.67-11.1-45.19-27.37l-2.66,1.4 c8.53,16.34,25.17,27.76,44.58,28.93h6.6C69.95,107.21,81.4,102.12,90.22,94.16z" fill="#249A41"></path>
  <path d="M108,52.89c-0.33-15.31-7.02-29.05-17.55-38.68l-2.01,2.17C98.61,25.71,105,39.11,105,54 c0,15.03-6.51,28.54-16.85,37.88l2.07,2.28c10.66-9.63,17.45-23.47,17.78-38.89V52.89z" fill="#3174F1"></path>
  <path d="M8.43,31.11C16.81,14.44,34.07,3,54,3c13.28,0,25.36,5.08,34.44,13.39l2.01-2.17 C80.85,5.44,68.06,0.08,54.03,0.08C32.95,0.08,14.7,12.17,5.8,29.79L8.43,31.11z" fill="#E92D18"></path>
</svg>