<svg xmlns="http://www.w3.org/2000/svg" width="24" height="24" viewBox="0 0 176 124">
  <path
    d="M180.32232,53.36279a22.11469,22.11469,0,0,0-15.56018-15.66123C151.03677,34,96,34,96,34S40.9633,34,27.23794,37.70156a22.11471,22.11471,0,0,0-15.5602,15.66123C8,67.17727,8,96,8,96s0,28.82276,3.67774,42.63724a22.11463,22.11463,0,0,0,15.5602,15.66117C40.9633,158,96,158,96,158s55.03674,0,68.76211-3.70162a22.11461,22.11461,0,0,0,15.56018-15.66117C184,124.82273,184,96,184,96S184,67.17727,180.32232,53.36279Z"
    transform="translate(-8 -34)"
    fill="red"
  />
  <polygon points="70 88.169 116 62.001 70 35.831 70 88.169" fill="#fff" />
</svg>
